<?xml version="1.0" encoding="UTF-8"?>
<svg id="svg-1511956643_7697" xmlns="http://www.w3.org/2000/svg" xmlns:xlink="http://www.w3.org/1999/xlink" version="1.1" viewBox="0 0 158 25">
  <!-- Generator: Adobe Illustrator 29.1.0, SVG Export Plug-In . SVG Version: 2.1.0 Build 142)  -->
  <defs>
    <style>
      .st0 {
        fill: url(#linear-gradient1);
      }

      .st1 {
        fill: url(#linear-gradient);
      }

      .st2 {
        fill: #191a20;
      }
    </style>
    <linearGradient id="linear-gradient" x1="13.6" y1="22.9" x2="13.6" y2="-1" gradientTransform="translate(0 26) scale(1 -1)" gradientUnits="userSpaceOnUse">
      <stop offset="0" stop-color="#ffb800"/>
      <stop offset="1" stop-color="#ff8c00"/>
    </linearGradient>
    <linearGradient id="linear-gradient1" x1="6.5" y1="22.9" x2="6.5" y2="-1" gradientTransform="translate(0 26) scale(1 -1)" gradientUnits="userSpaceOnUse">
      <stop offset="0" stop-color="#ffb800"/>
      <stop offset="1" stop-color="#ff8c00"/>
    </linearGradient>
  </defs>
  <path class="st1" d="M27.3,16.8c0,1.7-.5,3.7-1.2,5.5,0,0,0,0,0,0l-6-3.5v-3.4c0-.9-.7-1.5-1.5-1.5s-1.5.7-1.5,1.5v1.5l-8.3-4.9c-.2-.1-.5-.2-.8-.2h0s0,0,0,0c-.3,0-.6,0-.9.3L0,16.2C.3,8.9,6.3,3.1,13.6,3.1s13.7,6.1,13.7,13.7Z"/>
  <path class="st0" d="M2.3,24.5c-.9-1.4-1.6-2.9-1.9-4.5l7.6-4.7,4.7,2.8-10.4,6.5Z"/>
  <g>
    <path class="st2" d="M35.6,23.7V6.5h6.4c1,0,1.8,0,2.6.3.8.2,1.5.5,2,.8.6.4,1,.8,1.3,1.4.3.6.5,1.2.5,2s-.1,1.2-.4,1.7c-.3.5-.7.9-1.2,1.2-.5.3-1.3.6-2.2.7v.4c1.5.1,2.7.6,3.4,1.3.7.7,1.1,1.7,1.1,2.8s-.2,1.8-.7,2.5-1.2,1.2-2.1,1.5c-.9.3-2.1.5-3.6.5h-7ZM38.2,14h2.8c1.5,0,2.7-.2,3.4-.7.7-.4,1.1-1.1,1.1-2s-.3-1.5-1-1.9c-.7-.4-1.6-.6-3-.6h-3.4v5.1ZM38.2,21.4h4.5c1.2,0,2.1-.2,2.7-.6.6-.4.9-1,.9-1.9s-.4-1.8-1.2-2.2c-.8-.5-2-.7-3.6-.7h-3.3v5.5Z"/>
    <path class="st2" d="M57.3,24c-1.3,0-2.4-.3-3.4-.8-1-.6-1.7-1.4-2.3-2.4-.5-1.1-.8-2.3-.8-3.9s.3-2.9.8-3.9,1.3-1.8,2.3-2.4c1-.5,2.1-.8,3.3-.8s2.4.3,3.3.8,1.7,1.3,2.3,2.4c.6,1.1.8,2.4.8,3.9s-.3,2.9-.9,3.9c-.6,1-1.3,1.8-2.3,2.3-1,.5-2.1.8-3.3.8ZM57.4,21.8c.8,0,1.4-.2,2-.6.5-.4.9-.9,1.2-1.6.3-.7.4-1.6.4-2.5s-.2-1.9-.5-2.7c-.3-.7-.7-1.3-1.3-1.7-.6-.4-1.2-.6-2.1-.6s-1.4.2-1.9.5c-.5.4-1,.9-1.2,1.6-.3.7-.4,1.6-.4,2.6,0,1.6.3,2.8,1,3.7.7.9,1.6,1.3,2.8,1.3Z"/>
    <path class="st2" d="M71.9,24c-1.3,0-2.4-.3-3.4-.8-1-.6-1.7-1.4-2.3-2.4-.5-1.1-.8-2.3-.8-3.9s.3-2.9.8-3.9,1.3-1.8,2.3-2.4c1-.5,2.1-.8,3.3-.8s2.4.3,3.3.8,1.7,1.3,2.3,2.4c.6,1.1.8,2.4.8,3.9s-.3,2.9-.9,3.9c-.6,1-1.3,1.8-2.3,2.3-1,.5-2.1.8-3.3.8ZM72,21.8c.8,0,1.4-.2,2-.6.5-.4.9-.9,1.2-1.6.3-.7.4-1.6.4-2.5s-.2-1.9-.5-2.7c-.3-.7-.7-1.3-1.3-1.7-.6-.4-1.2-.6-2.1-.6s-1.4.2-1.9.5c-.5.4-1,.9-1.2,1.6-.3.7-.4,1.6-.4,2.6,0,1.6.3,2.8,1,3.7.7.9,1.6,1.3,2.8,1.3Z"/>
    <path class="st2" d="M80.8,23.7V5.3h2.7v10.4c.6-.4,1.2-.8,1.8-1.2.6-.5,1.1-.9,1.6-1.4.5-.5.9-1,1.3-1.5.4-.5.6-1,.8-1.4h3.2c-.3.7-.7,1.3-1.1,2-.5.7-1,1.3-1.6,1.8-.6.6-1.2,1-1.9,1.4-.7.4-1.4.7-2.1.8v.4c.9-.1,1.7,0,2.4.2.7.3,1.3.7,1.8,1.2s.9,1.1,1.3,1.8c.4.7.7,1.4,1.1,2.1l.7,1.8h-3l-.5-1.2c-.4-.9-.8-1.7-1.2-2.4-.4-.7-.9-1.2-1.5-1.6-.6-.4-1.3-.6-2.1-.6h-.8v5.8h-2.7Z"/>
    <path class="st2" d="M94.5,23.7V6.5h2.8v17.2h-2.8Z"/>
    <path class="st2" d="M100.6,23.7v-13.5s2.3,0,2.3,0v4.2c-.1,0,.3,0,.3,0,.2-1,.5-1.8.9-2.5s.8-1.2,1.4-1.5c.5-.3,1.2-.5,1.9-.5s1.5.2,2,.6c.5.4.9.9,1.2,1.6.3.7.4,1.4.5,2.2h.4c.2-1,.5-1.8.9-2.5.4-.7.9-1.2,1.5-1.5s1.2-.5,2-.5,1.3.1,1.8.4c.5.3,1,.7,1.3,1.3.4.6.6,1.3.8,2.1.2.8.3,1.8.3,2.9v7.2h-2.7v-6.9c0-1,0-1.9-.3-2.5s-.4-1.1-.8-1.5c-.4-.3-.8-.5-1.3-.5s-1.1.2-1.6.6c-.5.4-.8,1-1.1,1.8s-.5,1.6-.5,2.6v6.4h-2.7v-6.7c0-1.1,0-2-.3-2.6-.2-.7-.4-1.2-.8-1.5-.4-.3-.8-.5-1.3-.5s-1.2.2-1.6.7-.8,1-1.1,1.8-.5,1.6-.5,2.5v6.3h-2.7Z"/>
    <path class="st2" d="M123,23.7v-13.5s2.3,0,2.3,0v4.2c-.1,0,.3,0,.3,0,.2-1,.5-1.8.9-2.5s.8-1.2,1.4-1.5c.5-.3,1.2-.5,1.9-.5s1.5.2,2,.6c.5.4.9.9,1.2,1.6.3.7.4,1.4.5,2.2h.4c.2-1,.5-1.8.9-2.5.4-.7.9-1.2,1.5-1.5s1.2-.5,2-.5,1.3.1,1.8.4c.5.3,1,.7,1.3,1.3.4.6.6,1.3.8,2.1.2.8.3,1.8.3,2.9v7.2h-2.7v-6.9c0-1,0-1.9-.3-2.5s-.4-1.1-.8-1.5c-.4-.3-.8-.5-1.3-.5s-1.1.2-1.6.6c-.5.4-.8,1-1.1,1.8s-.5,1.6-.5,2.6v6.4h-2.7v-6.7c0-1.1,0-2-.3-2.6-.2-.7-.4-1.2-.8-1.5-.4-.3-.8-.5-1.3-.5s-1.2.2-1.6.7-.8,1-1.1,1.8-.5,1.6-.5,2.5v6.3h-2.7Z"/>
    <path class="st2" d="M151,24c-1.3,0-2.4-.3-3.4-.8-1-.6-1.7-1.4-2.3-2.4-.5-1.1-.8-2.3-.8-3.9s.3-2.9.8-3.9,1.3-1.8,2.3-2.4c1-.5,2.1-.8,3.3-.8s2.4.3,3.3.8c1,.5,1.7,1.3,2.3,2.4.6,1.1.8,2.4.8,3.9s-.3,2.9-.9,3.9c-.6,1-1.3,1.8-2.3,2.3-1,.5-2.1.8-3.3.8ZM151.2,21.8c.8,0,1.4-.2,2-.6.5-.4.9-.9,1.2-1.6.3-.7.4-1.6.4-2.5s-.2-1.9-.5-2.7c-.3-.7-.7-1.3-1.3-1.7-.6-.4-1.2-.6-2.1-.6s-1.4.2-1.9.5c-.5.4-1,.9-1.2,1.6-.3.7-.4,1.6-.4,2.6,0,1.6.3,2.8,1,3.7.7.9,1.6,1.3,2.8,1.3Z"/>
  </g>
  <metadata>
    <sfw xmlns="http://ns.adobe.com/SaveForWeb/1.0/">
      <slices/>
      <sliceSourceBounds x="0" y="-7.89" width="158.67" height="30.78" bottomLeftOrigin="true"/>
    </sfw>
  </metadata>
</svg>